<?xml version="1.0" encoding="utf-8"?><svg viewBox="0 0 30 30" xmlns="http://www.w3.org/2000/svg" xmlns:xlink="http://www.w3.org/1999/xlink"><style>:root>svg{display:none}:root>svg:target{display:block}</style><svg fill="none" viewBox="0 0 16 16" id="arrow" xmlns="http://www.w3.org/2000/svg"><path d="M8 1v14M15 8l-7 7-7-7" stroke="#fff" stroke-linecap="round" stroke-linejoin="round"/></svg><svg fill="none" viewBox="0 0 8 12" id="arrow-right" xmlns="http://www.w3.org/2000/svg"><path fill-rule="evenodd" clip-rule="evenodd" d="M0 1.4L4.6 6 0 10.6 1.4 12l6-6-6-6L0 1.4z" fill="#2C2E3F" fill-opacity=".5"/></svg><svg fill="none" viewBox="0 0 24 24" id="close-btn" xmlns="http://www.w3.org/2000/svg"><path d="M1 23L23 1m0 22L1 1" stroke="#141517" stroke-opacity=".2" stroke-linecap="round" stroke-linejoin="round"/></svg><svg fill="none" viewBox="0 0 26 20" id="mail" xmlns="http://www.w3.org/2000/svg"><path d="M24.227 0H1.773C.768 0 0 .765 0 1.765v16.47C0 19.235.768 20 1.773 20h22.454C25.232 20 26 19.235 26 18.235V1.765C26 .765 25.232 0 24.227 0zm0 17l-4.668-4.647a.86.86 0 00-1.24 0 .85.85 0 000 1.235l4.667 4.647H3.014l4.668-4.647a.85.85 0 000-1.235.86.86 0 00-1.241 0L1.773 17V5.706l10.636 8a.955.955 0 00.532.176.955.955 0 00.532-.176l10.754-8V17zm0-15.235V3.47l-11.286 8.352L1.773 3.471V1.765h22.454z" fill="#D7D9DF"/></svg><svg fill="none" viewBox="0 0 30 30" id="phone" xmlns="http://www.w3.org/2000/svg"><path d="M7.396 8.624c-.084-1.198.181-2.378.885-3.327.61-.86 1.404-1.33 2.361-1.605.807-.24 1.335.054 1.568.95.332 1.34.806 2.68.978 4.092.054.62-.347 1.5-.782 1.952-1.09 1.073-.864 1.854-.036 3.478.256.524.664 1.43 1.458 2.628.828 1.207 1.266 1.855 2.329 1.305 1.18-.594 2.041-.212 2.932.747.604.693 1.268 1.288 1.872 1.98.873 1.03.834 1.74.151 2.467-1.229 1.34-3.258 1.783-4.768.886-.834-.489-1.664-1.128-2.325-1.874-2.915-3.32-5.016-7.182-6.282-11.54a10.989 10.989 0 01-.34-2.139z" stroke="#D7D9DF" stroke-width="2" stroke-miterlimit="10"/></svg><svg fill="none" viewBox="0 0 14 12" id="tick" xmlns="http://www.w3.org/2000/svg"><path fill-rule="evenodd" clip-rule="evenodd" d="M13.614.21a1 1 0 01.175 1.404l-7.774 10a1 1 0 01-1.477.112l-4.225-4a1 1 0 111.375-1.452l3.424 3.242L12.21.386a1 1 0 011.404-.175z" fill="#141517"/></svg></svg>